<svg xmlns="http://www.w3.org/2000/svg" version="1.1" xmlns:xlink="http://www.w3.org/1999/xlink" xmlns:svgjs="http://svgjs.dev/svgjs" width="100%" height="100%" viewBox="0 0 1000 600"><rect width="1000" height="600" x="0" y="0" fill="#40e0d0"/><g><circle r="166.66666666666666" cx="477.322275797526" cy="499.5444832908313" fill="#ffffff" transform="matrix(0.40237484989531963,0,0,0.40237484989531963,0,98.99586705604264)"/><path d="M387.81747577941724 424.54447778968887L418.4972968798728 499.8521570907117L449.20642057927824 424.54447778968887L470.5387126147431 424.54447778968887L427.8741285438134 518.6058204185929L427.8741285438134 574.5444818137885L409.0325574190828 574.5444818137885L409.0325574190828 518.6058204185929L366.36797334815316 424.54447778968887L387.81747577941724 424.54447778968887ZM588.2765551950971 424.54447778968887L588.2765551950971 574.5444818137885L569.3177736745672 574.5444818137885L569.3177736745672 505.21453269852776L508.9544198379497 505.21453269852776L508.9544198379497 574.5444818137885L490.1128487132191 574.5444818137885L490.1128487132191 424.54447778968887L508.9544198379497 424.54447778968887L508.9544198379497 489.0394980782303L569.3177736745672 489.0394980782303L569.3177736745672 424.54447778968887L588.2765551950971 424.54447778968887Z " fill="#40e0d0" transform="matrix(0.40237484989531963,0,0,0.40237484989531963,0,98.99586705604264)"/><path d="M747.3953914991723 432.25014516766606L776.1065428354636 502.72546411157094L804.8451164748458 432.25014516766606L824.8085531251037 432.25014516766606L784.881679824588 520.2757380898197L784.881679824588 572.6249146905645L767.2491389370662 572.6249146905645L767.2491389370662 520.2757380898197L727.3222656365505 432.25014516766606L747.3953914991723 432.25014516766606ZM905.1010565755915 572.6249146905645L887.3588264757058 572.6249146905645Q885.8231775026089 569.2519714103698 885.1650422284247 561.2446589077939L885.1650422284247 561.2446589077939Q876.0882599052992 574.5444759069355 862.0206184196091 574.5444759069355L862.0206184196091 574.5444759069355Q847.8432877215552 574.5444759069355 839.8908198251612 566.5920080105416Q831.9383519287672 558.6395401141476 831.9383519287672 544.1879863851834L831.9383519287672 544.1879863851834Q831.9383519287672 528.2830505923956 842.7427393466266 518.9320452383599Q853.519704461395 509.58103988432435 872.3314043818303 509.3890837626873L872.3314043818303 509.3890837626873L884.8633968944235 509.3890837626873L884.8633968944235 498.28305101082674Q884.8633968944235 488.9320456567911 880.7226291276804 484.98323401168517Q876.5818613609374 481.0344223665792 868.0809474027232 481.0344223665792L868.0809474027232 481.0344223665792Q860.3752802341484 481.0344223665792 855.54895489013 485.6139469827785Q850.7226295461115 490.19347159897774 850.7226295461115 497.2410034933682L850.7226295461115 497.2410034933682L833.6659570235012 497.2410034933682Q833.6659570235012 489.23369099079224 838.3825931551554 481.96678067167363Q843.1266515899008 474.67244804946404 851.1339640924767 470.531680282721Q859.1138542919617 466.39091251597796 868.9584611016356 466.39091251597796L868.9584611016356 466.39091251597796Q884.9730861067875 466.39091251597796 893.3094662464557 474.34338041237186Q901.6458463861238 482.2958483087658 901.8378025077609 497.5152265242784L901.8378025077609 497.5152265242784L901.8378025077609 550.1660484590244Q901.9200694170339 562.2044395159794 905.1010565755915 571.0892657174677L905.1010565755915 571.0892657174677L905.1010565755915 572.6249146905645ZM864.6257372132554 559.0234523574218L864.6257372132554 559.0234523574218Q870.8780223180065 559.0234523574218 876.5818613609374 555.5682421679542Q882.2582781007771 552.0856096753954 884.8633968944235 546.8753720881028L884.8633968944235 546.8753720881028L884.8633968944235 522.0033431845535L875.2107462063867 522.0033431845535Q863.0626659370677 522.1952993061906 856.0425563457683 527.4603814996652Q848.9950244513777 532.7254636931398 848.9950244513777 542.1587359564485L848.9950244513777 542.1587359564485Q848.9950244513777 551.0161398548458 852.5599238532095 555.0197961061339Q856.1248232550413 559.0234523574218 864.6257372132554 559.0234523574218ZM928.245480384407 468.3104737323489L944.342372298832 468.3104737323489L944.8359737544703 479.58104030275547Q954.7628474734171 466.39091251597796 970.1741818105668 466.39091251597796L970.1741818105668 466.39091251597796Q997.8432856293995 466.39091251597796 998.2271978726736 503.30133247648223L998.2271978726736 503.30133247648223L998.2271978726736 572.6249146905645L981.2802145624272 572.6249146905645L981.2802145624272 504.0691569630306Q981.2802145624272 491.8388097844386 977.1668690987752 486.683416803328Q973.0809459382142 481.52802382221745 964.8816773140012 481.52802382221745L964.8816773140012 481.52802382221745Q958.5197029968859 481.52802382221745 953.4465769250485 485.75105849823353Q948.4008731563019 490.00151547734066 945.3021529070174 496.857091250094L945.3021529070174 496.857091250094L945.3021529070174 572.6249146905645L928.245480384407 572.6249146905645L928.245480384407 468.3104737323489ZM1061.106538860368 574.5444759069355L1061.106538860368 574.5444759069355Q1041.6092813626572 574.5444759069355 1031.2162284911628 562.9448416994368Q1020.7957533165778 551.317785188847 1020.6037971949407 528.8589189573069L1020.6037971949407 528.8589189573069L1020.6037971949407 516.2172372323496Q1020.6037971949407 492.9082796049881 1030.7774716417066 479.6358849089375Q1040.9511460884728 466.39091251597796 1059.1595553409059 466.39091251597796L1059.1595553409059 466.39091251597796Q1077.477653805703 466.39091251597796 1086.5544361288285 478.0453913296587Q1095.6037961488628 489.7272924464305 1095.7957522705 514.4073652283428L1095.7957522705 514.4073652283428L1095.7957522705 525.5682425863853L1037.578202808278 525.5682425863853L1037.578202808278 527.9814052583945Q1037.578202808278 544.7638547500948 1043.8853325192113 552.3872550093965Q1050.1924622301444 559.9832329656073 1062.0663194685533 559.9832329656073L1062.0663194685533 559.9832329656073Q1069.580030515491 559.9832329656073 1075.311291861513 557.1587357472329Q1081.0425532075346 554.3068162257675 1086.0608346731901 548.1367980302895L1086.0608346731901 548.1367980302895L1094.9456608746787 558.9411854481488Q1083.8396281228179 574.5444759069355 1061.106538860368 574.5444759069355ZM1059.1595553409059 481.0344223665792L1059.1595553409059 481.0344223665792Q1048.5745463477747 481.0344223665792 1043.446575669755 488.32875498878883Q1038.3460272948264 495.59566530790744 1037.6604697175512 510.924732735784L1037.6604697175512 510.924732735784L1078.7390797478895 510.924732735784L1078.7390797478895 508.62125927613886Q1078.053522170614 493.75837100080946 1073.3917306451417 487.3963966836944Q1068.7025168165787 481.0344223665792 1059.1595553409059 481.0344223665792ZM1134.6531557504663 468.3104737323489L1134.6531557504663 572.6249146905645L1117.596483227856 572.6249146905645L1117.596483227856 468.3104737323489L1134.6531557504663 468.3104737323489ZM1135.996848601926 440.6413699135162L1135.996848601926 440.6413699135162Q1135.996848601926 444.97409380189634 1133.5836859299166 447.88085792954377Q1131.1705232579075 450.7601997541002 1126.2619310046161 450.7601997541002L1126.2619310046161 450.7601997541002Q1121.4356056605977 450.7601997541002 1119.0224429885884 447.88085792954377Q1116.6367026196704 444.97409380189634 1116.6367026196704 440.6413699135162Q1116.6367026196704 436.30864602513606 1119.0224429885884 433.31961498821556Q1121.4356056605977 430.33058395129507 1126.2619310046161 430.33058395129507Q1131.0882563486343 430.33058395129507 1133.5562636268255 433.3744595943976Q1135.996848601926 436.3909129344091 1135.996848601926 440.6413699135162ZM1204.442917117096 467.7346053674376L1204.5526063294599 484.3250987375008Q1200.987706927628 483.63954116022546 1196.846939160885 483.63954116022546L1196.846939160885 483.63954116022546Q1183.7116559802894 483.63954116022546 1178.528840696088 498.0088279799166L1178.528840696088 498.0088279799166L1178.528840696088 572.6249146905645L1161.4447458703867 572.6249146905645L1161.4447458703867 468.3104737323489L1178.0352392404498 468.3104737323489L1178.3368845744508 478.92290502857117Q1185.1650380441133 466.39091251597796 1197.6970305567065 466.39091251597796L1197.6970305567065 466.39091251597796Q1201.7555314141764 466.39091251597796 1204.442917117096 467.7346053674376L1204.442917117096 467.7346053674376ZM1289.0955667590547 572.6249146905645L1271.353336659169 572.6249146905645Q1269.817687686072 569.2519714103698 1269.132130108797 561.2446589077939L1269.132130108797 561.2446589077939Q1260.0827700887626 574.5444759069355 1246.0151286030723 574.5444759069355L1246.0151286030723 574.5444759069355Q1231.8377979050183 574.5444759069355 1223.8853300086244 566.5920080105416Q1215.9328621122304 558.6395401141476 1215.9328621122304 544.1879863851834L1215.9328621122304 544.1879863851834Q1215.9328621122304 528.2830505923956 1226.7098272269989 518.9320452383599Q1237.5142146448582 509.58103988432435 1256.3259145652935 509.3890837626873L1256.3259145652935 509.3890837626873L1268.8579070778867 509.3890837626873L1268.8579070778867 498.28305101082674Q1268.8579070778867 488.9320456567911 1264.717139311144 484.98323401168517Q1260.5489492413096 481.0344223665792 1252.0754575861863 481.0344223665792L1252.0754575861863 481.0344223665792Q1244.3697904176115 481.0344223665792 1239.5434650735933 485.6139469827785Q1234.7171397295747 490.19347159897774 1234.7171397295747 497.2410034933682L1234.7171397295747 497.2410034933682L1217.6604672069643 497.2410034933682Q1217.6604672069643 489.23369099079224 1222.3771033386188 481.96678067167363Q1227.093739470273 474.67244804946404 1235.1010519728488 470.531680282721Q1243.1083644754249 466.39091251597796 1252.9529712850988 466.39091251597796L1252.9529712850988 466.39091251597796Q1268.9401739871596 466.39091251597796 1277.276554126828 474.34338041237186Q1285.612934266496 482.2958483087658 1285.8048903881331 497.5152265242784L1285.8048903881331 497.5152265242784L1285.8048903881331 550.1660484590244Q1285.9145796004973 562.2044395159794 1289.0955667590547 571.0892657174677L1289.0955667590547 571.0892657174677L1289.0955667590547 572.6249146905645ZM1248.5928250936277 559.0234523574218L1248.5928250936277 559.0234523574218Q1254.8725325014698 559.0234523574218 1260.5489492413096 555.5682421679542Q1266.2527882842405 552.0856096753954 1268.8579070778867 546.8753720881028L1268.8579070778867 546.8753720881028L1268.8579070778867 522.0033431845535L1259.20525638985 522.0033431845535Q1247.057176120531 522.1952993061906 1240.0370665292314 527.4603814996652Q1232.9895346348408 532.7254636931398 1232.9895346348408 542.1587359564485L1232.9895346348408 542.1587359564485Q1232.9895346348408 551.0161398548458 1236.5544340366728 555.0197961061339Q1240.1193334385043 559.0234523574218 1248.5928250936277 559.0234523574218ZM1451.7372463918564 432.25014516766606L1451.7372463918564 572.6249146905645L1433.9950162919704 572.6249146905645L1433.9950162919704 507.74374557722643L1377.5050719244828 507.74374557722643L1377.5050719244828 572.6249146905645L1359.84510873387 572.6249146905645L1359.84510873387 432.25014516766606L1377.5050719244828 432.25014516766606L1377.5050719244828 492.60663427098694L1433.9950162919704 492.60663427098694L1433.9950162919704 432.25014516766606L1451.7372463918564 432.25014516766606ZM1517.1942838701057 574.5444759069355L1517.1942838701057 574.5444759069355Q1497.7244486754862 574.5444759069355 1487.303973500901 562.9448416994368Q1476.883498326316 551.317785188847 1476.6915422046786 528.8589189573069L1476.6915422046786 528.8589189573069L1476.6915422046786 516.2172372323496Q1476.6915422046786 492.9082796049881 1486.8652166514448 479.6358849089375Q1497.038891098211 466.39091251597796 1515.274722653735 466.39091251597796L1515.274722653735 466.39091251597796Q1533.592821118532 466.39091251597796 1542.6421811385662 478.0453913296587Q1551.718963461692 489.7272924464305 1551.910919583329 514.4073652283428L1551.910919583329 514.4073652283428L1551.910919583329 525.5682425863853L1493.6659478180163 525.5682425863853L1493.6659478180163 527.9814052583945Q1493.6659478180163 544.7638547500948 1499.9730775289495 552.3872550093965Q1506.3076295429732 559.9832329656073 1518.1540644782913 559.9832329656073L1518.1540644782913 559.9832329656073Q1525.667775525229 559.9832329656073 1531.4264591743417 557.1587357472329Q1537.157720520364 554.3068162257675 1542.1760019860194 548.1367980302895L1542.1760019860194 548.1367980302895L1551.0334058844164 558.9411854481488Q1539.9547954356472 574.5444759069355 1517.1942838701057 574.5444759069355ZM1515.274722653735 481.0344223665792L1515.274722653735 481.0344223665792Q1504.6622913575125 481.0344223665792 1499.5617429825843 488.32875498878883Q1494.4337723045646 495.59566530790744 1493.77563703038 510.924732735784L1493.77563703038 510.924732735784L1534.8268247576275 510.924732735784L1534.8268247576275 508.62125927613886Q1534.168689483443 493.75837100080946 1529.47947565488 487.3963966836944Q1524.8176841294076 481.0344223665792 1515.274722653735 481.0344223665792ZM1615.3387066328432 467.7346053674376L1615.4209735421164 484.3250987375008Q1611.8560741402848 483.63954116022546 1607.7153063735418 483.63954116022546L1607.7153063735418 483.63954116022546Q1594.6074454960371 483.63954116022546 1589.3972079087443 498.0088279799166L1589.3972079087443 498.0088279799166L1589.3972079087443 572.6249146905645L1572.340535386134 572.6249146905645L1572.340535386134 468.3104737323489L1588.9310287561975 468.3104737323489L1589.2052517871075 478.92290502857117Q1596.060827559861 466.39091251597796 1608.5928200724543 466.39091251597796L1608.5928200724543 466.39091251597796Q1612.6238986268331 466.39091251597796 1615.3387066328432 467.7346053674376L1615.3387066328432 467.7346053674376ZM1632.395379155454 468.3104737323489L1648.4922710698788 468.3104737323489L1648.9858725255172 479.58104030275547Q1658.912746244464 466.39091251597796 1674.3240805816135 466.39091251597796L1674.3240805816135 466.39091251597796Q1701.9931844004464 466.39091251597796 1702.4045189468115 503.30133247648223L1702.4045189468115 503.30133247648223L1702.4045189468115 572.6249146905645L1685.4301133334743 572.6249146905645L1685.4301133334743 504.0691569630306Q1685.4301133334743 491.8388097844386 1681.3167678698223 486.683416803328Q1677.230844709261 481.52802382221745 1669.031576085048 481.52802382221745L1669.031576085048 481.52802382221745Q1662.6696017679328 481.52802382221745 1657.5964756960952 485.75105849823353Q1652.5507719273487 490.00151547734066 1649.4520516780644 496.857091250094L1649.4520516780644 496.857091250094L1649.4520516780644 572.6249146905645L1632.395379155454 572.6249146905645L1632.395379155454 468.3104737323489ZM1799.3697826766356 572.6249146905645L1781.62755257675 572.6249146905645Q1780.091903603653 569.2519714103698 1779.4063460263774 561.2446589077939L1779.4063460263774 561.2446589077939Q1770.3569860063435 574.5444759069355 1756.2893445206532 574.5444759069355L1756.2893445206532 574.5444759069355Q1742.1120138225992 574.5444759069355 1734.1595459262053 566.5920080105416Q1726.2070780298113 558.6395401141476 1726.2070780298113 544.1879863851834L1726.2070780298113 544.1879863851834Q1726.2070780298113 528.2830505923956 1737.0114654476706 518.9320452383599Q1747.7884305624393 509.58103988432435 1766.6001304828746 509.3890837626873L1766.6001304828746 509.3890837626873L1779.1321229954679 509.3890837626873L1779.1321229954679 498.28305101082674Q1779.1321229954679 488.9320456567911 1774.9913552287244 484.98323401168517Q1770.8505874619814 481.0344223665792 1762.3496735037675 481.0344223665792L1762.3496735037675 481.0344223665792Q1754.6440063351924 481.0344223665792 1749.8176809911738 485.6139469827785Q1744.9913556471556 490.19347159897774 1744.9913556471556 497.2410034933682L1744.9913556471556 497.2410034933682L1727.9346831245452 497.2410034933682Q1727.9346831245452 489.23369099079224 1732.6513192561997 481.96678067167363Q1737.3953776909448 474.67244804946404 1745.3752678904298 470.531680282721Q1753.3825803930063 466.39091251597796 1763.22718720268 466.39091251597796L1763.22718720268 466.39091251597796Q1779.2143899047405 466.39091251597796 1787.5781923474997 474.34338041237186Q1795.9145724871678 482.2958483087658 1796.106528608805 497.5152265242784L1796.106528608805 497.5152265242784L1796.106528608805 550.1660484590244Q1796.1887955180782 562.2044395159794 1799.3697826766356 571.0892657174677L1799.3697826766356 571.0892657174677L1799.3697826766356 572.6249146905645ZM1758.8944633142996 559.0234523574218L1758.8944633142996 559.0234523574218Q1765.1467484190507 559.0234523574218 1770.8505874619814 555.5682421679542Q1776.5270042018215 552.0856096753954 1779.1321229954679 546.8753720881028L1779.1321229954679 546.8753720881028L1779.1321229954679 522.0033431845535L1769.4794723074306 522.0033431845535Q1757.331392038112 522.1952993061906 1750.3112824468126 527.4603814996652Q1743.2637505524217 532.7254636931398 1743.2637505524217 542.1587359564485L1743.2637505524217 542.1587359564485Q1743.2637505524217 551.0161398548458 1746.8286499542533 555.0197961061339Q1750.3935493560853 559.0234523574218 1758.8944633142996 559.0234523574218ZM1822.5142064854513 468.3104737323489L1838.611098399876 468.3104737323489L1839.1046998555144 479.58104030275547Q1849.0315735744612 466.39091251597796 1864.4429079116112 466.39091251597796L1864.4429079116112 466.39091251597796Q1892.1120117304436 466.39091251597796 1892.4959239737177 503.30133247648223L1892.4959239737177 503.30133247648223L1892.4959239737177 572.6249146905645L1875.548940663471 572.6249146905645L1875.548940663471 504.0691569630306Q1875.548940663471 491.8388097844386 1871.435595199819 486.683416803328Q1867.3496720392582 481.52802382221745 1859.1504034150453 481.52802382221745L1859.1504034150453 481.52802382221745Q1852.78842909793 481.52802382221745 1847.7153030260924 485.75105849823353Q1842.669599257346 490.00151547734066 1839.5708790080616 496.857091250094L1839.5708790080616 496.857091250094L1839.5708790080616 572.6249146905645L1822.5142064854513 572.6249146905645L1822.5142064854513 468.3104737323489ZM1914.488611052711 526.4457562852976L1914.488611052711 515.7510580798024Q1914.488611052711 491.64685366280145 1923.5105487696542 479.0051719378442Q1932.5050641835069 466.39091251597796 1949.397202887571 466.39091251597796L1949.397202887571 466.39091251597796Q1964.3149357690822 466.39091251597796 1972.7061605149324 478.53899278529695L1972.7061605149324 478.53899278529695L1972.7061605149324 424.5444779990912L1989.7902553406338 424.5444779990912L1989.7902553406338 572.6249146905645L1974.1595425787564 572.6249146905645L1973.282028879844 561.4366150294311Q1964.9182264370847 574.5444759069355 1949.2875136752068 574.5444759069355L1949.2875136752068 574.5444759069355Q1933.0809325484179 574.5444759069355 1923.8944610129283 561.9850610912513Q1914.6805671743477 549.398223972476 1914.488611052711 526.4457562852976L1914.488611052711 526.4457562852976ZM1931.5452835753213 515.0655005025271L1931.5452835753213 525.4859756771123Q1931.5452835753213 543.036249655361 1936.7555211626136 551.262940582665Q1941.9657587499064 559.5170538130601 1953.7299267759513 559.5170538130601L1953.7299267759513 559.5170538130601Q1966.4538754101814 559.5170538130601 1972.7061605149324 546.6834159664656L1972.7061605149324 546.6834159664656L1972.7061605149324 494.06001633481065Q1966.1522300761803 481.52802382221745 1953.8121936852244 481.52802382221745L1953.8121936852244 481.52802382221745Q1942.048025659179 481.52802382221745 1936.8652103749778 489.7547147495215Q1931.6549727876854 498.0088279799166 1931.5452835753213 515.0655005025271L1931.5452835753213 515.0655005025271ZM2053.3003092994213 574.5444759069355L2053.3003092994213 574.5444759069355Q2033.8304741048019 574.5444759069355 2023.4374212333078 562.9448416994368Q2013.0169460587222 551.317785188847 2012.8249899370853 528.8589189573069L2012.8249899370853 528.8589189573069L2012.8249899370853 516.2172372323496Q2012.8249899370853 492.9082796049881 2022.9986643838515 479.6358849089375Q2033.1723388306173 466.39091251597796 2051.3807480830505 466.39091251597796L2051.3807480830505 466.39091251597796Q2069.6988465478476 466.39091251597796 2078.775628870973 478.0453913296587Q2087.8249888910077 489.7272924464305 2088.0169450126446 514.4073652283428L2088.0169450126446 514.4073652283428L2088.0169450126446 525.5682425863853L2029.7993955504226 525.5682425863853L2029.7993955504226 527.9814052583945Q2029.7993955504226 544.7638547500948 2036.1065252613562 552.3872550093965Q2042.4136549722894 559.9832329656073 2054.287512210698 559.9832329656073L2054.287512210698 559.9832329656073Q2061.8012232576357 559.9832329656073 2067.5324846036574 557.1587357472329Q2073.2637459496796 554.3068162257675 2078.2820274153346 548.1367980302895L2078.2820274153346 548.1367980302895L2087.139431313732 558.9411854481488Q2076.060820864963 574.5444759069355 2053.3003092994213 574.5444759069355ZM2051.3807480830505 481.0344223665792L2051.3807480830505 481.0344223665792Q2040.768316786828 481.0344223665792 2035.6677684119 488.32875498878883Q2030.5672200369713 495.59566530790744 2029.8816624596957 510.924732735784L2029.8816624596957 510.924732735784L2070.960272490034 510.924732735784L2070.960272490034 508.62125927613886Q2070.274714912759 493.75837100080946 2065.6129233872866 487.3963966836944Q2060.923709558723 481.0344223665792 2051.3807480830505 481.0344223665792ZM2172.6695946546038 480.95215545730616L2124.269229698965 558.0636717492364L2174.5891558709745 558.0636717492364L2174.5891558709745 572.6249146905645L2104.799394504345 572.6249146905645L2104.799394504345 559.5170538130601L2152.5964687919814 483.06367279531423L2105.183306747619 483.06367279531423L2105.183306747619 468.3104737323489L2172.6695946546038 468.3104737323489L2172.6695946546038 480.95215545730616Z " fill="#ffffff" transform="matrix(0.40237484989531963,0,0,0.40237484989531963,0,98.99586705604264)"/></g></svg>